<svg viewBox="0 0 374.83 191.09" xmlns="http://www.w3.org/2000/svg"><g fill="#fff"><path d="m293.65 118.89c-2.44-10.55-5.52-20.94-10.26-30.74-3.85-7.94-8.94-14.81-17.27-18.78.05-.17.05-.23.08-.26.46-.5.93-.99 1.39-1.48 9.8-10.49 14.18-22.83 12.03-37.11-1.72-11.38-8.98-22.46-23.1-25.92-6.61-1.62-13.27-2.25-19.46 1.83-1.71 1.13-2.72 2.51-2.61 4.46.22 3.89.41 7.81 1.01 11.65 2.51 16.09 5.1 32.16 7.79 48.22 3.68 21.95 7.45 43.89 11.24 65.82.78 4.54 1.76 9.05 2.78 13.55.37 1.64 1.25 3.08 3.06 3.66 3.55 1.14 7.59-1.15 8.01-4.85.27-2.39.2-4.9-.17-7.28-1.28-8.17-2.78-16.3-4.16-24.45-1.65-9.74-3.26-19.49-4.89-29.24-.46-2.75-.93-5.5-1.42-8.39 2.55.3 4.5 1.43 6.26 2.92 3.19 2.72 5.52 6.1 7.4 9.8 3.98 7.84 6.73 16.16 8.73 24.68 4.67 19.9 9.01 39.87 13.54 59.8.68 2.98 1.59 5.92 2.5 8.84.3.98.86 1.9 1.41 2.78 1.04 1.71 2.51 2.89 4.6 2.68 2.19-.22 3.53-1.64 4.25-3.66 1.26-3.53.92-7.1.14-10.64-4.24-19.3-8.4-38.62-12.85-57.87zm-37.96-57.46c-.27.23-.56.45-1.04.83-3.13-16.04-5.16-32.05-9.81-47.97 2.62.55 5.05.96 7.43 1.59 11.89 3.14 15.92 13.95 15.16 23.07-.76 9.16-4.74 16.6-11.74 22.48z"/><path d="m95.86 36.53c-1.31-5.81-3.1-11.46-6.37-16.52-1.89-2.92-4.12-5.55-7.41-6.98-4.85-2.11-9.49-1.18-13.63 1.68-3.06 2.11-5.74 4.76-8.52 7.1.15-3.83-1.37-7.36-3.76-10.57-8.19-11.05-24.79-14.58-36.83-7.77-8.58 4.85-13.87 12.46-17.34 21.44-2.03 5.27-2.58 10.77-1.35 16.28 2.53 11.28 9.22 19.47 19.36 24.78 6.02 3.16 12.5 4.62 19.34 3.48 1.92-.32 3.8-.9 5.56-1.33 0 2.33-.23 4.63.06 6.86.34 2.6.94 5.2 1.81 7.67.75 2.12 3.2 3.38 5.31 3.08 2.06-.29 2.74-2.02 3.37-3.69.17-.43.26-.9.33-1.36.74-4.67 1.49-9.34 2.19-14.01.15-.98.54-1.41 1.53-1.24 1.48.25 2.97.5 4.45.76 6.81 1.2 13.61 2.44 20.43 3.57 1.54.26 2.25.76 2.17 2.47-.45 9.68-.72 19.37-1.23 29.04-.41 7.74-1.07 15.45-3.03 23-.6 2.3.2 4.48 2.12 6.03 1.85 1.5 3.92 1.71 6.14.82 2.33-.93 3.83-2.71 4.31-5.02 1.01-4.93 1.98-9.89 2.48-14.89.75-7.45 1.37-14.94 1.51-22.43.2-10.46 0-20.94-.19-31.4-.13-7.04-1.28-13.97-2.83-20.83zm-47.82 14.74c-.27 1.12-.79 1.78-1.9 2.19-2.73 1-5.35 2.39-8.14 3.16-4.13 1.13-8.12-.06-11.77-1.92-6.97-3.55-11.59-9.09-13.11-16.91-.58-2.99.02-5.92 1.08-8.73 1.6-4.24 4.05-7.95 7.22-11.23 6.96-7.2 17.71-6.03 23.92-.07 1.6 1.53 2.82 3.46 4.2 5.22.83 1.06 1.52 2.28 2.49 3.19 1.05.97 2.37 1.66 3.73 2.59-3.59 6.93-5.82 14.67-7.72 22.52zm37.82 5.66c-8.39-1.43-16.57-2.82-25.02-4.27.61-2.16 1.19-4.34 1.84-6.5 1.81-6.01 3.84-11.94 8.13-16.72 1.31-1.46 2.89-2.7 4.4-3.96 1.04-.87 1.96-.79 2.85.43 2.22 3.05 3.46 6.51 4.49 10.07 1.87 6.47 2.66 13.13 3.38 19.8.04.35-.04.7-.07 1.15z"/><path d="m192.94 47.37c-1.34-9.23-3.25-18.34-6.43-27.12-.99-2.75-2.54-5.35-4.18-7.79-1.37-2.03-4.01-2.54-6.02-1.73-1.99.8-3.07 2.62-3.01 5.16.02.72.11 1.46.28 2.16.89 3.74 1.93 7.45 2.72 11.21 1.57 7.48 3.73 14.92 4.31 22.48.57 7.46-.24 15.08-1.01 22.57-.31 3.03-1.59 6.28-3.37 8.77-3.19 4.48-5.95 3.96-8.77.39-.83-1.05-1.55-2.24-2.1-3.46-.84-1.9-1.59-3.85-2.19-5.84-3.7-12.23-4.56-24.92-5.99-37.53-.48-4.21-1.49-8.37-2.39-12.53-.35-1.61-1.39-2.94-3.19-2.98s-2.93 1.23-3.31 2.84c-.84 3.53-1.88 7.08-2.08 10.66-.29 5.29.01 10.63.19 15.94.28 8.3 1.71 16.44 3.81 24.46 1.56 5.97 3.52 11.8 7.55 16.65 6.18 7.43 15.06 10.13 24.19 3.57.28-.2.6-.36 1.17-.69-.13 2.06-.27 3.85-.36 5.65-.33 7.1-1.42 14.08-3.52 20.87-1.75 5.68-4.09 11.13-8.59 15.2-7.96 7.2-18 7.2-25.14-1.71-3.84-4.8-6.23-10.27-8.1-16.08-.89-2.78-2.28-5.49-3.92-7.91-1.99-2.94-5.18-2.63-6.92.45-1.69 3-2.36 6.31-1.57 9.66 2.06 8.82 5.99 16.76 12.07 23.52 5.79 6.43 13 10.1 21.75 9.96 7.22-.12 13.64-2.78 19.16-7.42 6.61-5.56 10.4-12.92 13.04-20.95 4.33-13.16 4.88-26.78 4.81-40.45-.07-12.72-1.1-25.38-2.92-37.97z"/><path d="m249.56 147.53c-1.25-7.31-2.48-14.62-3.79-21.92-1.61-8.96-3.21-17.92-4.97-26.85-.75-3.81-1.7-7.6-2.85-11.31-.99-3.18-3.55-5.16-6.33-4.92-3.05.26-6.06.92-9.07 1.5-1.62.31-2.38 1.47-2.24 3.07.3 3.62.46 7.26 1.07 10.83 1.02 5.99 2.52 11.9 3.47 17.9.77 4.87 1.04 9.81 1.53 14.72l-.62.14c-.51-1.68-1.06-3.34-1.52-5.03-5.13-18.53-8.59-37.39-11-56.45-1.4-11.12-2.72-22.26-1.79-33.48.35-4.22 1.3-8.39 2.1-12.56.13-.7.91-1.8 1.36-1.79.78.02 1.6.69 2.29 1.23.37.29.54.88.73 1.35 1.12 2.79 2.17 5.62 3.36 8.38.88 2.05 1.84 4.07 2.96 5.99.81 1.39 2.13 2.37 3.88 2.14 1.85-.24 2.89-1.53 3.56-3.16.96-2.31.85-4.69.34-7.07-1.5-7.06-4.32-13.5-9.43-18.72-5.58-5.7-13.48-4.92-17.94 1.69-.87 1.29-1.6 2.69-2.23 4.11-2.41 5.51-3.29 11.38-3.72 17.31-.82 11.44.2 22.82 1.65 34.14 1.19 9.23 2.67 18.43 4.28 27.6 2.39 13.63 5.39 27.13 9.71 40.3 1.29 3.91 2.71 7.79 5.26 11.1 3.97 5.16 10.4 5.1 14.27-.16.86-1.16 1.52-2.46 2.33-3.78.85 2.57 1.65 5.07 2.5 7.57.95 2.79 3.52 4.55 6.33 4.39 3.09-.18 5.04-2.34 4.81-5.34-.08-.98-.17-1.97-.33-2.94z"/><path d="m145.4 44.37c-2.13-12.04-11.67-22.57-23.5-25.35-8.96-2.11-17.61 2.4-18.37 13.44-.42 6.13-.48 12.29-.53 18.44-.11 13.66-.08 27.33-.14 41-.08 17.99-.2 35.97-.29 53.96-.02 3.43 2.44 6.2 5.72 6.53 3.22.32 6.26-1.82 6.86-5.09.27-1.46.05-3.01.05-4.52h-.19c0-4.01-.05-8.03 0-12.04.16-11.68.37-23.36.55-35.04.04-2.45.02-4.9.01-7.35 0-.74.12-1.2 1.02-1.43 4.75-1.22 9.12-3.35 13.04-6.23 12.26-9.02 18.53-20.66 15.77-36.31zm-24.94 27.1c-1.43.91-3.01 1.58-4.91 2.57 0-4.97.07-9.5-.02-14.02-.14-7.5-.36-14.99-.6-22.48-.05-1.55-.26-3.11-.49-4.65-.34-2.27.76-3.49 3.05-3.1 3.01.51 5.9 1.48 8.21 3.55 5.82 5.2 8.44 11.71 7.68 19.52-.84 8.62-6.02 14.24-12.93 18.62z"/><path d="m334.87 135.83c-2.98-13.3-6.16-26.55-9.29-39.81-3.29-13.93-6.66-27.83-11.81-41.22-2.81-7.3-5.72-14.57-10.16-21.05-1.63-2.38-3.59-4.66-5.81-6.46-3.58-2.9-8.16-2.7-11.28.29-1.35 1.3-2.46 2.99-3.27 4.7-2.46 5.2-3.25 10.82-3.77 16.49-.54 6.01-.2 11.99.67 17.93.85 5.76 1.74 11.56 4.41 16.83.69 1.36 1.9 2.64 3.19 3.48 2.78 1.81 5.47.24 5.34-3.05-.15-3.84-.48-7.68-.74-11.71.33-.09.67-.24 1.02-.26 3.48-.25 6.96-.52 10.45-.68 2.67-.12 2.26-.33 2.9 2.16 2.88 11.18 5.72 22.37 8.45 33.59 2.54 10.46 5.03 20.93 7.34 31.44 1.49 6.75 2.56 13.59 3.95 20.37.75 3.66 3.95 5.72 7.43 5.06 3.38-.64 5.58-3.91 4.92-7.55-1.25-6.85-2.41-13.73-3.93-20.53zm-43.59-76.01c-.29-6.52.08-12.86 1.85-19.48 3.68 5.89 6.16 11.95 8.59 18.28-3.52.4-6.85.78-10.44 1.19z"/><path d="m374.44 111.43c-.67-6.71-2.43-13.19-4.36-19.61-1.47-4.89-3.05-9.76-6.44-13.76-2.79-3.3-5.14-3.41-8.25-.41-.11.1-.26.16-.54.32-.84-1.63-1.53-3.33-2.52-4.83-3.19-4.87-6.26-9.85-9.83-14.43-2.49-3.19-6.2-4.65-10.36-3.63-4.3 1.06-6.72 4.17-7.52 8.33-.52 2.73-.84 5.65-.44 8.36 1 6.83 2.17 13.67 3.8 20.38 3.34 13.74 7.03 27.4 10.59 41.09.73 2.82 1.4 5.66 2.36 8.4 1.08 3.09 3.76 4.69 6.49 4.23 3.73-.63 5.98-4.12 5-8.32-1.98-8.45-4.17-16.86-6.24-25.29-3.04-12.37-6.06-24.75-9.05-37.13-.17-.69-.02-1.47-.02-2.2l.42-.04c.14.15.31.27.4.44 2.69 5.22 5.65 10.33 7.98 15.71 2.78 6.44 4.92 13.14 7.53 19.65.65 1.61 1.84 3.13 3.14 4.32 1.45 1.33 3.1.45 3.24-1.54.1-1.4.15-2.82.07-4.22-.16-2.7-.51-5.39-.62-8.08-.03-.71.56-1.44.86-2.16.58.49 1.41.86 1.7 1.48 2.22 4.75 2.59 9.91 3.15 15.01.32 2.94.59 5.9.87 8.84.24 2.53 2.57 3.84 4.87 3.98 1.72.1 2.87-1.21 3.53-3.75.97-3.71.59-7.43.22-11.16z"/></g></svg>